<svg width="52" height="30" viewBox="0 0 52 30" fill="none" xmlns="http://www.w3.org/2000/svg">
<path d="M26 14.51C29.5464 14.51 32.4167 11.2647 32.4167 7.255C32.4167 3.24532 29.5464 0 26 0C22.4536 0 19.5833 3.24532 19.5833 7.255C19.5833 11.2647 22.4536 14.51 26 14.51ZM30.4 16.5829H29.9245C28.7328 17.2306 27.4094 17.6193 26 17.6193C24.5906 17.6193 23.2729 17.2306 22.0755 16.5829H21.6C17.9562 16.5829 15 19.9253 15 24.0451V25.9107C15 27.6273 16.2318 29.02 17.75 29.02H34.25C35.7682 29.02 37 27.6273 37 25.9107V24.0451C37 19.9253 34.0437 16.5829 30.4 16.5829Z" fill="#333533"/>
<path d="M42.8987 14.5099C45.9135 14.5099 48.3595 11.7802 48.3595 8.41573C48.3595 5.05123 45.9135 2.32153 42.8987 2.32153C39.884 2.32153 37.438 5.05123 37.438 8.41573C37.438 11.7802 39.884 14.5099 42.8987 14.5099ZM45.6291 16.5413H45.413C44.6223 16.846 43.7861 17.0492 42.8987 17.0492C42.0114 17.0492 41.1752 16.846 40.3845 16.5413H40.1684C39.008 16.5413 37.9386 16.9159 37 17.5189C38.3879 19.1885 39.2582 21.404 39.2582 23.8544V26.2921C39.2582 26.4317 39.2298 26.565 39.2241 26.6983H49.2696C50.777 26.6983 52 25.3335 52 23.6512C52 19.7217 49.1502 16.5413 45.6291 16.5413Z" fill="#333533"/>
<path d="M9.10125 14.5097C6.08646 14.5097 3.6405 11.78 3.6405 8.41549C3.6405 5.05098 6.08646 2.32129 9.10125 2.32129C12.116 2.32129 14.562 5.05098 14.562 8.41549C14.562 11.78 12.116 14.5097 9.10125 14.5097ZM6.37088 16.5411H6.58703C7.3777 16.8458 8.21388 17.0489 9.10125 17.0489C9.98862 17.0489 10.8248 16.8458 11.6155 16.5411H11.8316C12.992 16.5411 14.0614 16.9156 15 17.5187C13.6121 19.1883 12.7418 21.4038 12.7418 23.8541V26.2918C12.7418 26.4315 12.7702 26.5648 12.7759 26.6981H2.73038C1.22298 26.6981 0 25.3332 0 23.651C0 19.7215 2.84983 16.5411 6.37088 16.5411Z" fill="#333533"/>
</svg>
